<svg width="50" height="50" viewBox="0 0 50 50" fill="none" xmlns="http://www.w3.org/2000/svg">
<circle cx="25" cy="25" r="25" fill="#F1F1F1"/>
<path d="M16.0636 20.5091C17.7091 17.2409 21.0908 15 25 15C27.6954 15 29.959 15.9909 31.6909 17.6045L28.8227 20.4727C27.7864 19.4819 26.4681 18.9773 25 18.9773C22.3954 18.9773 20.1908 20.7364 19.4046 23.1C19.2045 23.7 19.0909 24.3409 19.0909 25C19.0909 25.6591 19.2045 26.3 19.4046 26.9C20.1908 29.2636 22.3954 31.0227 25 31.0227C26.3454 31.0227 27.4909 30.6682 28.3864 30.0682C29.4454 29.3591 30.15 28.3 30.3818 27.05H25V23.1818H34.4181C34.5364 23.8363 34.6 24.5182 34.6 25.2273C34.6 28.2727 33.5091 30.8363 31.6181 32.5773C29.9636 34.1046 27.7 35 25 35C21.0908 35 17.7091 32.7591 16.0636 29.4909C15.3864 28.1409 15 26.6136 15 25C15 23.3864 15.3864 21.8591 16.0636 20.5091Z" fill="black"/>
</svg>
